<svg width="36" height="37" viewBox="0 0 36 37" fill="none" xmlns="http://www.w3.org/2000/svg">
<g clip-path="url(#clip0_1_659)">
<path d="M17.5917 36.1133C27.3073 36.1133 35.1834 28.2373 35.1834 18.5216C35.1834 8.806 27.3073 0.929932 17.5917 0.929932C7.87607 0.929932 0 8.806 0 18.5216C0 28.2373 7.87607 36.1133 17.5917 36.1133Z" fill="white" fill-opacity="0.4"/>
<path d="M21.0349 7.65798C21.0349 7.21253 20.4963 6.98945 20.1814 7.30443L8.71114 18.7747C8.59071 18.8953 8.50871 19.0488 8.47551 19.216C8.4423 19.3831 8.45938 19.5564 8.52457 19.7138C8.58977 19.8713 8.70016 20.0059 8.84181 20.1006C8.98346 20.1954 9.15001 20.246 9.32043 20.2462H13.6488C13.9249 20.2462 14.1488 20.4701 14.1488 20.7462V29.3856C14.1488 29.831 14.6873 30.0541 15.0023 29.7391L26.4726 18.2689C26.593 18.1483 26.675 17.9947 26.7082 17.8276C26.7414 17.6604 26.7243 17.4872 26.6591 17.3297C26.5939 17.1723 26.4835 17.0377 26.3419 16.9429C26.2002 16.8482 26.0337 16.7975 25.8633 16.7974H21.5349C21.2588 16.7974 21.0349 16.5735 21.0349 16.2974V7.65798Z" fill="white"/>
</g>
<defs>
<clipPath id="clip0_1_659">
<rect width="36" height="37" fill="white"/>
</clipPath>
</defs>
</svg>
