<svg width="32" height="32" viewBox="0 0 32 32" fill="none" xmlns="http://www.w3.org/2000/svg">
<g clip-path="url(#clip0_1_651)">
<path opacity="0.4" d="M22.8494 0H8.34863C3.0643 0 0.0703125 2.99399 0.0703125 8.27832V22.7654C0.0703125 28.0497 3.0643 31.0437 8.34863 31.0437H22.8494C28.1338 31.0437 31.114 28.0497 31.114 22.7654V8.27832C31.114 2.99399 28.1338 0 22.8494 0Z" fill="white"/>
<path d="M24.9974 14.8948V20.5382H19.354" stroke="white" stroke-width="2.5" stroke-linecap="round" stroke-linejoin="round"/>
<path d="M24.9978 20.5381L18.3603 13.9006C18.2438 13.7841 18.1056 13.6916 17.9534 13.6285C17.8012 13.5655 17.638 13.533 17.4733 13.533C17.3085 13.533 17.1454 13.5655 16.9932 13.6285C16.8409 13.6916 16.7027 13.7841 16.5862 13.9006L13.971 16.5158C13.8545 16.6323 13.7163 16.7248 13.5641 16.7878C13.4119 16.8509 13.2487 16.8834 13.084 16.8834C12.9192 16.8834 12.7561 16.8509 12.6039 16.7878C12.4516 16.7248 12.3134 16.6323 12.1969 16.5158L6.18652 10.5054" stroke="white" stroke-width="2.5" stroke-linecap="round" stroke-linejoin="round"/>
</g>
<defs>
<clipPath id="clip0_1_651">
<rect width="32" height="32" fill="white"/>
</clipPath>
</defs>
</svg>
