<svg width="43" height="39" viewBox="0 0 43 39" fill="none" xmlns="http://www.w3.org/2000/svg">
<g opacity="0.84992" clip-path="url(#clip0_1_614)">
<path fill-rule="evenodd" clip-rule="evenodd" d="M42.0855 12.162H33.173C29.0255 12.1692 25.6655 15.4376 25.658 19.4721C25.6524 23.5157 29.0161 26.7987 33.173 26.8041H42.093V27.4466C42.093 34.5001 37.807 38.671 30.5539 38.671H11.541C4.28601 38.671 0 34.5001 0 27.4466V12.0837C0 5.03011 4.28601 0.875488 11.541 0.875488H30.5464C37.7995 0.875488 42.0855 5.03011 42.0855 12.0837V12.162ZM9.97512 12.1455H21.8454H21.8528H21.8678C22.7565 12.1419 23.4748 11.4375 23.4711 10.5714C23.4673 9.70693 22.7414 9.00813 21.8528 9.01177H9.97512C9.09212 9.01541 8.3756 9.71239 8.37186 10.5732C8.36811 11.4375 9.0865 12.1419 9.97512 12.1455Z" fill="white"/>
<path opacity="0.4" d="M29.544 20.3961C29.9842 22.3934 31.7394 23.7986 33.7433 23.7621H40.5832C41.4169 23.7621 42.0933 23.0732 42.0933 22.2216V16.906C42.0914 16.0563 41.4169 15.3656 40.5832 15.3638H33.5822C31.3028 15.3711 29.4617 17.2587 29.4653 19.5848C29.4653 19.8572 29.4922 20.1294 29.544 20.3961Z" fill="white"/>
<path d="M33.674 21.6629C34.8363 21.6629 35.7786 20.7228 35.7786 19.5631C35.7786 18.4035 34.8363 17.4634 33.674 17.4634C32.5116 17.4634 31.5693 18.4035 31.5693 19.5631C31.5693 20.7228 32.5116 21.6629 33.674 21.6629Z" fill="white"/>
</g>
<defs>
<clipPath id="clip0_1_614">
<rect width="43" height="39" fill="white"/>
</clipPath>
</defs>
</svg>
