<svg width="46" height="47" viewBox="0 0 46 47" fill="none" xmlns="http://www.w3.org/2000/svg">
<g clip-path="url(#clip0_1_898)">
<path opacity="0.4" d="M45.1314 23.7281C45.1314 36.0928 35.1084 46.1158 22.7437 46.1158C10.3789 46.1158 0.355957 36.0928 0.355957 23.7281C0.355957 11.3656 10.3789 1.34033 22.7437 1.34033C35.1084 1.34033 45.1314 11.3656 45.1314 23.7281Z" fill="white"/>
<path d="M31.3848 16.3512L27.758 27.8137C27.6237 28.2838 27.2431 28.6644 26.7729 28.801L15.3552 32.3808C14.594 32.6293 13.8552 31.8882 14.1015 31.1271L17.6835 19.6422C17.8179 19.172 18.1984 18.8138 18.6686 18.6571L30.1311 15.0751C30.9147 14.8288 31.6311 15.5676 31.3848 16.3512Z" fill="white"/>
</g>
<defs>
<clipPath id="clip0_1_898">
<rect width="46" height="46" fill="white" transform="translate(0 0.984375)"/>
</clipPath>
</defs>
</svg>
