<svg width="26" height="33" viewBox="0 0 26 33" fill="none" xmlns="http://www.w3.org/2000/svg">
<g filter="url(#filter0_d_1_18905)">
<g clip-path="url(#clip0_1_18905)">
<path d="M21.4359 19.7432H11.2315L13.1393 13.31L16.0675 12.4671L16.6887 10.3375L13.7605 11.2248L16.8661 0.665502V0.532401C16.8661 0.221834 16.6443 0 16.3337 0H12.3851C12.0745 0 11.8083 0.221834 11.7196 0.532401L8.0815 12.9995L5.15329 13.8868L4.48779 15.972L7.416 15.0847L4.79836 24.0024H20.3711C20.6817 24.0024 20.9479 23.7806 21.0366 23.5144L21.9239 20.4531V20.32C21.9683 19.965 21.7465 19.7432 21.4359 19.7432Z" fill="#010725"/>
</g>
</g>
<defs>
<filter id="filter0_d_1_18905" x="0" y="0" width="26" height="33" filterUnits="userSpaceOnUse" color-interpolation-filters="sRGB">
<feFlood flood-opacity="0" result="BackgroundImageFix"/>
<feColorMatrix in="SourceAlpha" type="matrix" values="0 0 0 0 0 0 0 0 0 0 0 0 0 0 0 0 0 0 127 0" result="hardAlpha"/>
<feOffset dy="4"/>
<feGaussianBlur stdDeviation="2"/>
<feComposite in2="hardAlpha" operator="out"/>
<feColorMatrix type="matrix" values="0 0 0 0 0 0 0 0 0 0 0 0 0 0 0 0 0 0 0.25 0"/>
<feBlend mode="normal" in2="BackgroundImageFix" result="effect1_dropShadow_1_18905"/>
<feBlend mode="normal" in="SourceGraphic" in2="effect1_dropShadow_1_18905" result="shape"/>
</filter>
<clipPath id="clip0_1_18905">
<rect width="18" height="25" fill="white" transform="translate(4)"/>
</clipPath>
</defs>
</svg>
