<svg width="58" height="47" viewBox="0 0 58 47" fill="none" xmlns="http://www.w3.org/2000/svg">
<g opacity="0.84992">
<path d="M43.6975 9.50315C41.2009 6.49101 37.8317 4.31968 34.0501 3.28553C30.2686 2.25139 26.2588 2.40483 22.5679 3.72491C18.8771 5.04499 15.6853 7.46739 13.428 10.6614C11.1707 13.8556 9.95812 17.6656 9.95557 21.5716V26.7537" stroke="white" stroke-opacity="0.4" stroke-width="4.92496" stroke-linecap="round" stroke-linejoin="round"/>
<path d="M16.0117 37.7566C18.6299 40.52 22.0206 42.4368 25.7448 43.2589C29.4691 44.081 33.3554 43.7706 36.9005 42.3678C40.4455 40.965 43.4862 38.5345 45.6288 35.391C47.7713 32.2474 48.9172 28.5355 48.9178 24.736V21.2859" stroke="white" stroke-opacity="0.4" stroke-width="4.92496" stroke-linecap="round" stroke-linejoin="round"/>
<path d="M18.5805 18.2663C18.5696 18.4741 18.5007 18.6759 18.3779 18.8511L10.3068 30.2399C10.0841 30.5528 9.71764 30.7316 9.33321 30.7115C8.94879 30.6914 8.60307 30.4754 8.41447 30.1411L1.58269 17.9743C1.38469 17.6202 1.39408 17.1862 1.61091 16.8418C1.82633 16.4959 2.21188 16.2957 2.61864 16.317L17.5216 17.0949C17.9284 17.1162 18.2908 17.3553 18.4688 17.7218C18.5538 17.8944 18.5903 18.0823 18.5805 18.2663Z" fill="white"/>
<path d="M39.8517 28.6356C39.8589 28.4304 39.9234 28.2301 40.0415 28.0553L47.8077 16.6804C48.022 16.3679 48.3805 16.1852 48.7601 16.1984C49.1397 16.2116 49.4846 16.4187 49.6764 16.7453L56.627 28.6321C56.8285 28.9781 56.8268 29.4065 56.6188 29.75C56.4122 30.095 56.0353 30.299 55.6336 30.285L40.9168 29.7731C40.5151 29.7592 40.1533 29.5294 39.9715 29.1709C39.8846 29.0021 39.8454 28.8173 39.8517 28.6356Z" fill="white"/>
</g>
</svg>
