<svg width="42" height="42" viewBox="0 0 42 42" fill="none" xmlns="http://www.w3.org/2000/svg">
<g opacity="0.84992" clip-path="url(#clip0_1_604)">
<path opacity="0.4" d="M30.7179 0H11.3711C4.32073 0 0.326172 3.99456 0.326172 11.0448V30.3733C0.326172 37.4237 4.32073 41.4183 11.3711 41.4183H30.7179C37.7683 41.4183 41.7444 37.4237 41.7444 30.3733V11.0448C41.7444 3.99456 37.7683 0 30.7179 0Z" fill="white"/>
<path d="M11.4439 15.2605C10.5051 15.2605 9.73193 16.0336 9.73193 16.9908V31.2203C9.73193 32.1591 10.5051 32.9322 11.4439 32.9322C12.4011 32.9322 13.1743 32.1591 13.1743 31.2203V16.9908C13.1743 16.0336 12.4011 15.2605 11.4439 15.2605Z" fill="white"/>
<path d="M21.1084 8.46777C20.1696 8.46777 19.3965 9.24092 19.3965 10.1982V31.2201C19.3965 32.159 20.1696 32.9322 21.1084 32.9322C22.0656 32.9322 22.8387 32.159 22.8387 31.2201V10.1982C22.8387 9.24092 22.0656 8.46777 21.1084 8.46777Z" fill="white"/>
<path d="M30.644 22.771C29.6868 22.771 28.9136 23.5442 28.9136 24.5014V31.2203C28.9136 32.1592 29.6868 32.9323 30.6255 32.9323C31.5827 32.9323 32.3559 32.1592 32.3559 31.2203V24.5014C32.3559 23.5442 31.5827 22.771 30.644 22.771Z" fill="white"/>
</g>
<defs>
<clipPath id="clip0_1_604">
<rect width="42" height="42" fill="white"/>
</clipPath>
</defs>
</svg>
