<svg width="29" height="27" viewBox="0 0 29 27" fill="none" xmlns="http://www.w3.org/2000/svg">
<g clip-path="url(#clip0_1_476)">
<path opacity="0.4" d="M22.6318 6.78784C26.1004 6.78784 28.9237 9.70282 28.9237 13.2855V20.4071C28.9237 23.9811 26.1075 26.8888 22.646 26.8888H6.91483C3.44481 26.8888 0.620117 23.9753 0.620117 20.3925V13.2709C0.620117 9.69698 3.43774 6.78784 6.90068 6.78784H8.23095H22.6318Z" fill="white"/>
<path d="M15.545 19.1578L19.6618 14.9577C20.0863 14.5236 20.0863 13.825 19.6589 13.3924C19.2316 12.9611 18.5424 12.9626 18.1178 13.3952L15.8634 15.6951V1.10681C15.8634 0.495907 15.3752 0 14.7723 0C14.1709 0 13.6841 0.495907 13.6841 1.10681V15.6951L11.4283 13.3952C11.0037 12.9626 10.3145 12.9611 9.88717 13.3924C9.67347 13.6094 9.56592 13.8926 9.56592 14.1772C9.56592 14.4589 9.67347 14.7421 9.88433 14.9577L14.0011 19.1578C14.2063 19.3663 14.4836 19.4841 14.7723 19.4841C15.0624 19.4841 15.3398 19.3663 15.545 19.1578Z" fill="white"/>
</g>
<defs>
<clipPath id="clip0_1_476">
<rect width="29" height="27" fill="white"/>
</clipPath>
</defs>
</svg>
