<svg width="34" height="23" viewBox="0 0 34 23" fill="none" xmlns="http://www.w3.org/2000/svg">
<g clip-path="url(#clip0_1_490)">
<path d="M29.5435 3.65405H6.39502C4.18588 3.65405 2.39502 5.44491 2.39502 7.65405V18.7251C2.39502 20.9343 4.18588 22.7251 6.39502 22.7251H29.5435C31.7527 22.7251 33.5435 20.9343 33.5435 18.7251V7.65405C33.5435 5.44491 31.7527 3.65405 29.5435 3.65405Z" fill="white" fill-opacity="0.4"/>
<path d="M26.3587 0.163818H4C1.79086 0.163818 0 1.95468 0 4.16382V15.2349C0 17.4441 1.79086 19.2349 4 19.2349H26.3587C28.5678 19.2349 30.3587 17.4441 30.3587 15.2349V4.16382C30.3587 1.95468 28.5678 0.163818 26.3587 0.163818Z" fill="white"/>
<path d="M15.1794 13.7448C17.4137 13.7448 19.225 11.9335 19.225 9.69918C19.225 7.46485 17.4137 5.65356 15.1794 5.65356C12.9451 5.65356 11.1338 7.46485 11.1338 9.69918C11.1338 11.9335 12.9451 13.7448 15.1794 13.7448Z" fill="#0328EE"/>
<path d="M6.06441 8.29263C7.20455 8.29263 8.12882 7.36836 8.12882 6.22822C8.12882 5.08808 7.20455 4.16381 6.06441 4.16381C4.92427 4.16381 4 5.08808 4 6.22822C4 7.36836 4.92427 8.29263 6.06441 8.29263Z" fill="#0328EE"/>
<path d="M24.2944 15.235C25.4345 15.235 26.3588 14.3107 26.3588 13.1706C26.3588 12.0305 25.4345 11.1062 24.2944 11.1062C23.1542 11.1062 22.23 12.0305 22.23 13.1706C22.23 14.3107 23.1542 15.235 24.2944 15.235Z" fill="#0328EE"/>
</g>
<defs>
<clipPath id="clip0_1_490">
<rect width="34" height="23" fill="white"/>
</clipPath>
</defs>
</svg>
