<svg width="45" height="46" viewBox="0 0 45 46" fill="none" xmlns="http://www.w3.org/2000/svg">
<g clip-path="url(#clip0_1_907)">
<path d="M19.2599 39.8022C29.7081 39.8022 38.1782 31.279 38.1782 20.7651C38.1782 10.2512 29.7081 1.72803 19.2599 1.72803C8.81156 1.72803 0.341553 10.2512 0.341553 20.7651C0.341553 31.279 8.81156 39.8022 19.2599 39.8022Z" fill="white"/>
<path opacity="0.4" d="M41.4258 45.6295C40.6909 45.6057 39.9921 45.3034 39.4694 44.783L34.9893 39.5463C34.0288 38.6679 33.9502 37.1751 34.8132 36.1995C35.2171 35.7908 35.7663 35.561 36.3392 35.561C36.912 35.561 37.4612 35.7908 37.8652 36.1995L43.4996 40.7078C44.3112 41.5385 44.5616 42.7717 44.139 43.8562C43.7163 44.9407 42.6996 45.6739 41.5432 45.728L41.4258 45.6295Z" fill="white"/>
</g>
<defs>
<clipPath id="clip0_1_907">
<rect width="45" height="45" fill="white" transform="translate(0 0.984375)"/>
</clipPath>
</defs>
</svg>
