<svg width="52" height="53" viewBox="0 0 52 53" fill="none" xmlns="http://www.w3.org/2000/svg">
<g clip-path="url(#clip0_1_887)">
<path d="M51.4875 26.7281C51.4875 40.9574 39.973 52.4719 25.7437 52.4719C11.5145 52.4719 0 40.9574 0 26.7281C0 12.4989 11.5145 0.984375 25.7437 0.984375C28.7862 0.984375 31.735 1.49925 34.4498 2.4822C44.3728 6.03951 51.4875 15.5413 51.4875 26.7281Z" fill="white" fill-opacity="0.4"/>
<path d="M50.9726 21.5327C49.1472 12.6863 42.7815 5.47799 34.4498 2.48236C34.403 2.48236 34.3562 2.43555 34.3562 2.43555L34.4498 7.39707C34.4498 8.66085 33.7009 9.83102 32.5308 10.3459C29.9564 11.4693 27.382 10.8608 26.3055 13.8096C25.4161 16.0095 27.7565 22.0476 30.6117 22.0476C34.2158 22.0476 35.9477 14.7926 37.0242 14.7926C37.7263 14.7926 38.8029 16.9925 40.0667 18.6307C40.9092 19.7541 42.2198 20.3626 43.624 20.3626H46.0111L50.9726 21.5327Z" fill="white"/>
<path d="M30.3308 32.3448C29.0202 34.1702 35.9008 39.7402 38.1943 38.6637C42.0793 36.8382 44.6068 33.0469 44.6068 31.6427C44.6068 30.2384 42.7814 27.5237 36.5561 31.7363C34.8242 33 31.6882 30.4725 30.3308 32.3448Z" fill="white"/>
<path d="M19.8929 27.243C21.2503 25.8856 21.6715 23.7793 20.9694 22.5623C18.7227 18.4901 13.3867 20.6433 12.8719 24.9027C12.591 27.4771 11.0464 30.0982 9.73581 31.4556C8.42522 32.7662 5.85085 32.0641 5.14875 30.145C4.35303 27.9919 7.11463 27.1962 6.69337 24.4346C6.59976 23.6857 5.80404 23.3112 4.8211 23.1708L0.187227 23.3581C0.0936134 24.4346 0 25.558 0 26.7281C0 39.0383 8.61245 49.3358 20.1737 51.8634V47.2763C20.1737 47.2763 20.1737 47.2763 19.0036 46.1062C17.8334 44.936 20.2205 42.9701 20.8758 40.4893C22.7013 33.4683 16.6164 33.1875 16.4292 31.6429C16.242 29.911 18.5355 28.6004 19.8929 27.243Z" fill="white"/>
</g>
<defs>
<clipPath id="clip0_1_887">
<rect width="52" height="52" fill="white" transform="translate(0 0.984375)"/>
</clipPath>
</defs>
</svg>
