<svg width="25" height="32" viewBox="0 0 25 32" fill="none" xmlns="http://www.w3.org/2000/svg">
<g clip-path="url(#clip0_1_18864)">
<path d="M23.4971 12.7778C23.9865 9.43787 21.4923 7.64229 18.0816 6.44461L19.1893 1.92055L16.4874 1.23435L15.4083 5.63943C14.6988 5.45923 13.9697 5.28805 13.245 5.12039L14.3281 0.686199L11.6289 0L10.5245 4.52228L5.0764 3.14638L4.35761 6.08819C4.35761 6.08819 6.36187 6.55655 6.31953 6.58566C7.41344 6.86425 7.61184 7.60213 7.57836 8.18748L4.54716 20.5812C4.41325 20.92 4.07404 21.428 3.30947 21.2338C3.33654 21.2739 1.34609 20.7318 1.34609 20.7318L0.00500488 23.8889L5.44515 25.2895L4.32709 29.8662L7.02501 30.5524L8.13276 26.0248C8.87122 26.2286 9.58507 26.4169 10.2847 26.5941L9.18137 31.1006L11.8827 31.7868L13.0008 27.2188C17.6072 28.1073 21.0712 27.7489 22.5272 23.5042C23.7019 20.0845 22.4696 18.1117 20.0459 16.8247C21.8109 16.408 23.1401 15.2249 23.4949 12.7795L23.4971 12.7778ZM17.3234 21.6022C16.4864 25.0219 10.8408 23.1739 9.00882 22.7096L10.4922 16.647C12.3231 17.1128 18.1943 18.0355 17.3244 21.6017L17.3234 21.6022ZM18.1613 12.7293C17.3997 15.8416 12.6988 14.2603 11.1731 13.8723L12.5161 8.3722C14.0423 8.76072 18.9534 9.48405 18.1593 12.7291" fill="#010725"/>
</g>
<defs>
<clipPath id="clip0_1_18864">
<rect width="24" height="32" fill="white" transform="translate(0.00500488)"/>
</clipPath>
</defs>
</svg>
