<svg width="28" height="33" viewBox="0 0 28 33" fill="none" xmlns="http://www.w3.org/2000/svg">
<g clip-path="url(#clip0_1_677)">
<path d="M14.3519 32.4428C14.151 32.4428 13.9501 32.3967 13.7689 32.3029L7.92736 29.279C6.26979 28.4201 4.97314 27.4561 3.96063 26.3331C1.74456 23.8772 0.511587 20.7245 0.491991 17.4541L0.423402 6.69014C0.415236 5.44784 1.21708 4.33279 2.41575 3.91285L13.1418 0.173226C13.7787 -0.0542382 14.4891 -0.0574195 15.1374 0.162091L25.9042 3.77447C27.1094 4.1769 27.9243 5.284 27.9308 6.52471L27.9994 17.2966C28.0207 20.5622 26.8302 23.7276 24.6484 26.2107C23.6473 27.3496 22.3621 28.3278 20.7208 29.2027L14.9316 32.2949C14.752 32.3919 14.5527 32.4412 14.3519 32.4428Z" fill="white"/>
<path d="M13.107 19.9863C12.7934 19.9879 12.4799 19.8749 12.2382 19.6427L9.1288 16.6523C8.64868 16.1878 8.64378 15.4338 9.119 14.9662C9.59423 14.4969 10.37 14.4922 10.8517 14.955L13.089 17.1056L18.5516 11.7196C19.0285 11.2504 19.8042 11.2456 20.2843 11.7085C20.7661 12.173 20.771 12.9285 20.2958 13.3946L13.9709 19.6316C13.7324 19.867 13.4205 19.9847 13.107 19.9863Z" fill="#0328EE"/>
</g>
<defs>
<clipPath id="clip0_1_677">
<rect width="28" height="33" fill="white"/>
</clipPath>
</defs>
</svg>
