<svg width="42" height="41" viewBox="0 0 42 41" fill="none" xmlns="http://www.w3.org/2000/svg">
<g opacity="0.84992" clip-path="url(#clip0_1_586)">
<path opacity="0.4" d="M2.75124 8.51221H26.5484C27.6493 8.51221 28.5429 9.4052 28.5429 10.5055C28.5429 11.6057 27.6493 12.4988 26.5484 12.4988H2.75124C1.65033 12.4988 0.756836 11.6057 0.756836 10.5055C0.756836 9.4052 1.65033 8.51221 2.75124 8.51221Z" fill="white"/>
<mask id="mask0_1_586" style="mask-type:alpha" maskUnits="userSpaceOnUse" x="24" y="0" width="18" height="22">
<path fill-rule="evenodd" clip-rule="evenodd" d="M24.4185 21.4653V0H41.5796V21.4653H24.4185Z" fill="white"/>
</mask>
<g mask="url(#mask0_1_586)">
<path d="M25.7654 0.18335C26.0168 0.18335 26.2646 0.253348 26.4837 0.389759L40.7359 9.36596C41.1274 9.61365 41.3663 10.0427 41.3663 10.5057C41.3663 10.9688 41.1274 11.3978 40.7359 11.6455L26.4837 20.6216C26.0689 20.8819 25.5444 20.8981 25.1153 20.6593C24.6842 20.4224 24.4185 19.9719 24.4185 19.4819V1.52951C24.4185 1.0395 24.6842 0.588992 25.1153 0.352068C25.3181 0.23899 25.5427 0.18335 25.7654 0.18335Z" fill="white"/>
</g>
<path opacity="0.4" d="M39.319 32.0591H15.5218C14.4208 32.0591 13.5273 31.1661 13.5273 30.0658C13.5273 28.9654 14.4208 28.0725 15.5218 28.0725H39.319C40.4198 28.0725 41.3134 28.9654 41.3134 30.0658C41.3134 31.1661 40.4198 32.0591 39.319 32.0591Z" fill="white"/>
<mask id="mask1_1_586" style="mask-type:alpha" maskUnits="userSpaceOnUse" x="0" y="19" width="18" height="22">
<path fill-rule="evenodd" clip-rule="evenodd" d="M17.5156 19.1057V40.571H0.354492V19.1057H17.5156Z" fill="white"/>
</mask>
<g mask="url(#mask1_1_586)">
<path d="M16.1688 40.3877C15.9174 40.3877 15.6696 40.3177 15.4505 40.1813L1.19823 31.2052C0.806727 30.9574 0.567871 30.5285 0.567871 30.0654C0.567871 29.6024 0.806727 29.1733 1.19823 28.9257L15.4505 19.9495C15.8653 19.6891 16.3898 19.673 16.8189 19.9117C17.25 20.1486 17.5157 20.5991 17.5157 21.0892V39.0416C17.5157 39.5316 17.25 39.9821 16.8189 40.219C16.616 40.3321 16.3915 40.3877 16.1688 40.3877Z" fill="white"/>
</g>
</g>
<defs>
<clipPath id="clip0_1_586">
<rect width="42" height="41" fill="white"/>
</clipPath>
</defs>
</svg>
