<svg width="32" height="32" viewBox="0 0 32 32" fill="none" xmlns="http://www.w3.org/2000/svg">
<g clip-path="url(#clip0_1_693)">
<path d="M16.2422 0.88916C7.32063 0.88916 0.855957 8.16767 0.855957 16.2447C0.855957 18.8244 1.60838 21.4809 2.92895 23.9071C3.17464 24.3063 3.20535 24.813 3.03644 25.2891L2.00762 28.7287C1.77729 29.5579 2.48364 30.1721 3.26677 29.9264L6.36858 29.0051C7.21314 28.7287 7.87342 29.0819 8.65809 29.5579C10.9 30.8785 13.6932 31.5541 16.2115 31.5541C23.8278 31.5541 31.567 25.6729 31.567 16.1986C31.567 8.02947 24.9641 0.88916 16.2422 0.88916Z" fill="white"/>
<path fill-rule="evenodd" clip-rule="evenodd" d="M9.10222 18.2256C8.02734 18.2256 7.13672 17.335 7.13672 16.2601C7.13672 15.1699 8.01198 14.2946 9.10222 14.2946C10.1924 14.2946 11.0677 15.1699 11.0677 16.2601C11.0677 17.335 10.1924 18.2102 9.10222 18.2256ZM16.1816 18.2258C15.0914 18.2105 14.2161 17.3352 14.2161 16.245C14.2161 15.1701 15.1067 14.2795 16.1816 14.2948C17.2719 14.2948 18.1471 15.1701 18.1471 16.2603C18.1471 17.3352 17.2719 18.2258 16.1816 18.2258ZM21.2948 16.2605C21.2948 17.3354 22.17 18.226 23.2603 18.226C24.3505 18.226 25.2258 17.3354 25.2258 16.2605C25.2258 15.1703 24.3505 14.295 23.2603 14.295C22.17 14.295 21.2948 15.1703 21.2948 16.2605Z" fill="#0328EE"/>
</g>
<defs>
<clipPath id="clip0_1_693">
<rect width="32" height="32" fill="white"/>
</clipPath>
</defs>
</svg>
